<svg width="135" height="83" viewBox="0 0 135 83" fill="none" xmlns="http://www.w3.org/2000/svg">
<path d="M19.8642 70.9651C-0.750799 61.4651 3.90421 47.9751 2.85921 31.3501C4.37921 42.8451 6.1314 47.9022 14.7342 60.1351C10.0318 49.1315 8.60104 43.6442 9.50922 35.8151C9.50922 45.4101 16.806 51.8701 18.6292 55.8601C20.882 60.7901 20.3499 64.5366 19.8642 70.9651Z" fill="#DE623F"/>
<path d="M24.1864 70.9651C44.8014 61.4651 40.1464 47.9751 41.1914 31.3501C39.6714 42.8451 37.9193 47.9022 29.3164 60.1351C34.0188 49.1315 35.4496 43.6442 34.5414 35.8151C34.5414 45.4101 27.2446 51.8701 25.4214 55.8601C23.1687 60.7901 23.7007 64.5366 24.1864 70.9651Z" fill="#DE623F"/>
<path d="M13.8793 36.4801C13.8793 28.975 21.9543 15.58 21.9543 0C21.9543 15.675 30.2193 30.0201 30.2193 36.4801C30.2193 42.9401 26.0556 48.2447 21.9543 53.2001C16.8209 46.369 13.8793 41.6101 13.8793 36.4801Z" fill="#DE623F"/>
<path d="M4.09423 66.5951C-1.00111 61.7753 -0.317423 55.2391 0.769228 41.8951C0.270522 54.0247 0.25943 60.5991 7.03924 66.5951C12.0879 71.0601 15.8752 73.4136 22.1443 78.9451V82.9351C14.5442 74.7651 10.8232 72.9601 4.09423 66.5951Z" fill="white"/>
<path d="M40.1943 66.5951C45.2896 61.7753 44.6059 55.2391 43.5193 41.8951C44.018 54.0247 44.0291 60.5991 37.2493 66.5951C32.2006 71.0601 28.4134 73.4136 22.1443 78.9451V82.9351C29.7443 74.7651 33.4653 72.9601 40.1943 66.5951Z" fill="white"/>
<path d="M63.8329 42.4676H59.6595C59.5511 42.4676 59.4969 42.4073 59.4969 42.2869V21.1853H54.6913C54.5708 21.1853 54.5106 21.1251 54.5106 21.0047L54.5468 16.8675C54.5468 16.7711 54.5949 16.7229 54.6913 16.7229H68.7469C68.8794 16.7229 68.9457 16.7711 68.9457 16.8675V21.0047C68.9457 21.1251 68.8975 21.1853 68.8011 21.1853H63.9413L63.9774 42.2869C63.9774 42.4073 63.9292 42.4676 63.8329 42.4676Z" fill="white"/>
<path d="M75.0883 42.4676H70.8969C70.8005 42.4676 70.7523 42.4073 70.7523 42.2869L70.7885 16.8675C70.7885 16.7711 70.8487 16.7229 70.9691 16.7229H75.0883C75.2087 16.7229 75.2689 16.7711 75.2689 16.8675L75.2328 26.9305H80.7792V16.8675C80.7792 16.7711 80.8274 16.7229 80.9237 16.7229H85.0428C85.1633 16.7229 85.2235 16.7711 85.2235 16.8675L85.2958 42.2869C85.2958 42.4073 85.2356 42.4676 85.1151 42.4676H80.9598C80.8394 42.4676 80.7792 42.4073 80.7792 42.2869V31.4109H75.2328V42.2869C75.2328 42.4073 75.1846 42.4676 75.0883 42.4676Z" fill="white"/>
<path d="M100.417 42.4676H88.4574C88.361 42.4676 88.3129 42.4073 88.3129 42.2869L88.349 16.8675C88.349 16.7711 88.3972 16.7229 88.4935 16.7229H100.381C100.478 16.7229 100.526 16.7832 100.526 16.9036V21.0408C100.526 21.1372 100.478 21.1853 100.381 21.1853H92.7933V26.9666H100.381C100.478 26.9666 100.526 27.0148 100.526 27.1111L100.562 31.3025C100.562 31.3989 100.514 31.4471 100.417 31.4471H92.7933V37.9148H100.417C100.514 37.9148 100.562 37.975 100.562 38.0955V42.323C100.562 42.4194 100.514 42.4676 100.417 42.4676Z" fill="white"/>
<path d="M60.2738 74.4676H56.1185C55.9981 74.4676 55.9379 74.4073 55.9379 74.2869L56.0101 48.8675C56.0101 48.7711 56.0583 48.7229 56.1547 48.7229H68.0062C68.1267 48.7229 68.1869 48.7711 68.1869 48.8675V53.0408C68.1869 53.1372 68.1387 53.1853 68.0424 53.1853H60.4545V58.9305H68.0424C68.1387 58.9305 68.1869 58.9907 68.1869 59.1111L68.223 63.3025C68.223 63.3989 68.1628 63.4471 68.0424 63.4471H60.4545V74.2869C60.4545 74.4073 60.3942 74.4676 60.2738 74.4676Z" fill="white"/>
<path d="M78.3583 74.8289C77.0455 74.8289 75.835 74.4916 74.7269 73.8172C73.6309 73.1427 72.7456 72.2454 72.0712 71.1253C71.4087 69.9931 71.0775 68.7526 71.0775 67.4036L71.1136 55.6785C71.1136 54.3055 71.4449 53.0709 72.1073 51.9749C72.7577 50.8668 73.6369 49.9816 74.745 49.3191C75.8531 48.6446 77.0575 48.3074 78.3583 48.3074C79.7072 48.3074 80.9177 48.6386 81.9896 49.3011C83.0736 49.9635 83.9408 50.8548 84.5912 51.9749C85.2536 53.083 85.5848 54.3175 85.5848 55.6785L85.621 67.4036C85.621 68.7526 85.2958 69.9871 84.6454 71.1072C83.983 72.2394 83.1037 73.1427 82.0077 73.8172C80.9117 74.4916 79.6952 74.8289 78.3583 74.8289ZM78.3583 70.3665C79.105 70.3665 79.7554 70.0654 80.3094 69.4632C80.8635 68.8489 81.1405 68.1624 81.1405 67.4036L81.1044 55.6785C81.1044 54.8595 80.8454 54.1669 80.3275 53.6009C79.8096 53.0348 79.1532 52.7517 78.3583 52.7517C77.5995 52.7517 76.9491 53.0288 76.4071 53.5828C75.8651 54.1368 75.5941 54.8354 75.5941 55.6785V67.4036C75.5941 68.2106 75.8651 68.9091 76.4071 69.4993C76.9491 70.0774 77.5995 70.3665 78.3583 70.3665Z" fill="white"/>
<path d="M92.7572 74.4676H88.5658C88.4694 74.4676 88.4213 74.4073 88.4213 74.2869L88.4935 48.8675C88.4935 48.7711 88.5417 48.7229 88.6381 48.7229H96.1176C97.4545 48.7229 98.683 49.0481 99.8031 49.6985C100.923 50.3489 101.814 51.2221 102.477 52.3181C103.151 53.4142 103.489 54.6547 103.489 56.0398C103.489 56.9431 103.35 57.7622 103.073 58.4969C102.796 59.2316 102.471 59.8518 102.098 60.3577C101.736 60.8636 101.405 61.2369 101.104 61.4778C102.441 62.9593 103.109 64.6997 103.109 66.699L103.145 74.2869C103.145 74.4073 103.085 74.4676 102.965 74.4676H98.7733C98.677 74.4676 98.6288 74.4314 98.6288 74.3592V66.699C98.6288 65.8077 98.3156 65.0369 97.6893 64.3865C97.063 63.7361 96.2922 63.4109 95.3768 63.4109H92.9379L92.9017 74.2869C92.9017 74.4073 92.8536 74.4676 92.7572 74.4676ZM96.1176 53.1492H92.9379V58.9666H96.1176C96.8763 58.9666 97.5508 58.6835 98.141 58.1175C98.7432 57.5514 99.0443 56.8588 99.0443 56.0398C99.0443 55.2569 98.7552 54.5825 98.1771 54.0164C97.599 53.4383 96.9125 53.1492 96.1176 53.1492Z" fill="white"/>
<path d="M112.287 74.8289C110.95 74.8289 109.746 74.4977 108.674 73.8352C107.59 73.1728 106.717 72.2815 106.054 71.1614C105.404 70.0413 105.078 68.7887 105.078 67.4036V55.6785C105.078 54.3295 105.41 53.101 106.072 51.993C106.723 50.8728 107.596 49.9816 108.692 49.3191C109.788 48.6446 110.986 48.3074 112.287 48.3074C113.648 48.3074 114.877 48.6326 115.973 49.283C117.069 49.9454 117.936 50.8307 118.574 51.9388C119.224 53.0468 119.55 54.2934 119.55 55.6785V57.3767C119.55 57.4731 119.489 57.5213 119.369 57.5213H115.214C115.117 57.5213 115.069 57.4731 115.069 57.3767V55.9676C115.069 55.0281 114.804 54.2513 114.274 53.637C113.744 53.0227 113.082 52.7156 112.287 52.7156C111.576 52.7156 110.944 53.0107 110.39 53.6009C109.836 54.191 109.559 54.8836 109.559 55.6785V67.4036C109.559 68.2106 109.83 68.9091 110.372 69.4993C110.914 70.0774 111.552 70.3665 112.287 70.3665C113.082 70.3665 113.744 70.0834 114.274 69.5174C114.804 68.9392 115.069 68.2346 115.069 67.4036V65.5789H112.486C112.353 65.5789 112.287 65.5187 112.287 65.3982V61.261C112.287 61.1406 112.353 61.0804 112.486 61.0804H119.405C119.502 61.0804 119.55 61.1406 119.55 61.261V67.4036C119.55 68.7887 119.224 70.0413 118.574 71.1614C117.912 72.2815 117.038 73.1728 115.954 73.8352C114.87 74.4977 113.648 74.8289 112.287 74.8289Z" fill="white"/>
<path d="M134.274 74.4676H122.314C122.217 74.4676 122.169 74.4073 122.169 74.2869L122.205 48.8675C122.205 48.7711 122.254 48.7229 122.35 48.7229H134.238C134.334 48.7229 134.382 48.7832 134.382 48.9036V53.0408C134.382 53.1372 134.334 53.1853 134.238 53.1853H126.65V58.9666H134.238C134.334 58.9666 134.382 59.0148 134.382 59.1111L134.418 63.3025C134.418 63.3989 134.37 63.4471 134.274 63.4471H126.65V69.9148H134.274C134.37 69.9148 134.418 69.975 134.418 70.0955V74.323C134.418 74.4194 134.37 74.4676 134.274 74.4676Z" fill="white"/>
</svg>
